<?xml version="1.0" encoding="UTF-8" standalone="no"?>
<svg
   xmlns:dc="http://purl.org/dc/elements/1.1/"
   xmlns:cc="http://creativecommons.org/ns#"
   xmlns:rdf="http://www.w3.org/1999/02/22-rdf-syntax-ns#"
   xmlns:svg="http://www.w3.org/2000/svg"
   xmlns="http://www.w3.org/2000/svg"
   id="svg7"
   version="1.2"
   viewBox="0 0 105.00001 153.75001"
   height="205"
   width="140">
  <metadata
     id="metadata13">
    <rdf:RDF>
      <cc:Work
         rdf:about="">
        <dc:format>image/svg+xml</dc:format>
        <dc:type
           rdf:resource="http://purl.org/dc/dcmitype/StillImage" />
        <dc:title></dc:title>
      </cc:Work>
    </rdf:RDF>
  </metadata>
  <defs
     id="defs11" />
  <g
     transform="translate(-254.14117,-330.62113)"
     id="surface188">
    <path
       id="path2"
       d="m 271.93359,348.77734 34.75,-17.89453 34.75391,17.89453 v 84.44141 h -69.50391 z m 0,0"
       style="fill:#fff5b0;fill-opacity:1;fill-rule:evenodd;stroke:none" />
    <path
       id="path4"
       d="m 256.9375,461.27344 2.80078,-9.6211 v 9.6211 h 2.29297 v -17.82032 h -2.29297 l -2.69922,9.3711 v -9.3711 h -2.29297 v 17.82032 z m 31.79687,-36.31641 9.8711,-33.92578 v 33.92578 c 11.25,0 22.5,0 33.75,0 V 354.625 l -13.03516,-6.76563 -12.63672,6.76563 -13.03125,-6.76563 -12.63672,6.76563 v 70.33203 z m 17.94922,-15.25781 v -32.48047 h 7.1836 v -7.01172 h 10.41015 v 17.32422 h -11.30859 v 8.07812 h 11.30859 v 21.26954 h -10.41015 v -7.17969 z m 0,-47.57031 12.63672,-6.76563 13.03516,6.76563 c -8.5586,0 -17.11328,0 -25.67188,0 z m 0,0 h -8.07812 l -9.51172,33.03125 v -33.03125 h -8.07813 l 12.63672,-6.76563 z m -35.28125,86.67187 v -3.82031 c 0,-0.8125 -0.66406,-1.52735 -1.52734,-1.52735 h -3.46484 c -0.8125,0 -1.52735,0.71485 -1.52735,1.52735 v 14.79297 c 0,0.8125 0.71485,1.5 1.52735,1.5 h 3.46484 c 0.83984,0 1.52734,-0.6875 1.52734,-1.5 v -3.8711 h -2.29297 v 3.08203 h -1.93359 v -13.23828 h 1.93359 v 3.05469 z m 2.47266,-5.34766 v 17.82032 h 2.28906 v -7.78907 l 2.11328,7.78907 h 2.3711 l -2.69922,-9.54688 2.41797,-8.27344 h -2.41797 l -1.78516,6.69532 v -6.69532 z m 10.875,17.82032 2.80078,-9.6211 v 9.6211 h 2.28906 v -17.82032 h -2.28906 l -2.69922,9.3711 v -9.3711 h -2.29297 v 17.82032 z m 9.21875,0 h 2.29297 v -15.52735 h 2.03515 v -2.29297 h -6.36328 v 2.29297 h 2.03516 z m 8.55859,0 2.80078,-9.6211 v 9.6211 h 2.28907 v -17.82032 h -2.28907 l -2.69921,9.3711 v -9.3711 h -2.29297 v 17.82032 z m 18.07813,0 v -17.82032 h -2.29297 l -2.82422,8.91016 -2.72266,-8.91016 h -2.29296 v 17.82032 h 2.36718 v -9.6211 l 1.73047,5.80469 h 1.85938 l 1.88281,-5.80469 v 9.6211 z m 9.34765,-12.47266 v -3.82031 c 0,-0.8125 -0.66406,-1.52735 -1.52734,-1.52735 h -3.46484 c -0.8125,0 -1.52735,0.71485 -1.52735,1.52735 v 14.79297 c 0,0.8125 0.71485,1.5 1.52735,1.5 h 3.46484 c 0.83984,0 1.52734,-0.6875 1.52734,-1.5 v -3.8711 h -2.29296 v 3.08203 h -1.9336 v -13.23828 h 1.9336 v 3.05469 z m 2.47266,-5.34766 v 17.82032 h 2.28906 v -7.78907 l 2.11328,7.78907 h 2.3711 l -2.69922,-9.54688 2.41797,-8.27344 H 336.5 l -1.78516,6.69532 v -6.69532 z m 10.875,17.82032 2.80078,-9.6211 v 9.6211 h 2.28906 v -17.82032 h -2.28906 l -2.69922,9.3711 v -9.3711 h -2.29297 v 17.82032 z m 10.13281,0 2.80078,-9.6211 v 9.6211 h 2.29297 v -17.82032 h -2.29297 l -2.69531,9.3711 v -9.3711 h -2.29297 v 17.82032 z m 2.52344,-20.33985 h -2.11328 v -0.78906 h -1.80859 v 1.42578 c 0,0.5586 0.40625,1.04297 0.96875,1.14453 0.0742,0.0274 0.15234,0.0274 0.22656,0.0274 h 3.33594 c 0.66406,0 1.19921,-0.53516 1.19921,-1.17188 v -1.42578 h -1.80859 z m -81.43359,27.6836 h 1.93359 v 4.91406 h -2.1875 v 2.29297 h 2.1875 v 6.03125 h -1.93359 v -1.55078 h -2.29297 v 2.33984 c 0,0.81641 0.71484,1.50391 1.52734,1.50391 h 3.46094 c 0.84375,0 1.53125,-0.6875 1.53125,-1.50391 v -14.78906 c 0,-0.81641 -0.66406,-1.52735 -1.53125,-1.52735 h -3.46094 c -0.8125,0 -1.52734,0.71094 -1.52734,1.52735 v 2.1875 h 2.29297 z m 7.28125,-0.76172 v 14 h -1.01953 v 2.29297 h 1.78125 c 0.83984,0 1.52734,-0.6875 1.52734,-1.50391 v -14.02734 h 1.9375 v 15.53125 h 2.28906 v -17.82032 h -4.98828 c -0.81641,0 -1.52734,0.71094 -1.52734,1.52735 z m 15.16797,14 h -3.61329 v -6.03125 h 2.41797 v -2.29297 h -2.41797 v -4.91406 h 3.4336 v -2.28907 h -5.72656 v 17.82032 h 5.90625 z m 2.43359,2.29297 h 4.98828 c 0.83984,0 1.52734,-0.6875 1.52734,-1.50391 v -6.3125 c 0,-0.63672 -0.3789,-1.34766 -1.0664,-1.5 0.45703,-0.12891 0.78906,-0.61328 0.78906,-1.25 v -5.72656 c 0,-0.81641 -0.66406,-1.52735 -1.52734,-1.52735 h -4.71094 z m 2.28906,-2.29297 v -5.75391 h 1.9375 v 5.75391 z m 0,-13.23828 h 1.65625 v 5.19531 h -1.65625 z m 11.89453,15.53125 h 2.24219 l -1.83594,-17.82032 h -4.07422 l -1.88281,17.82032 h 2.29297 l 0.35547,-3.48828 h 2.54687 z m -1.6289,-15.53125 1.01953,9.7539 h -2.03906 z m 7.35937,15.53125 h 2.29297 v -15.53125 h 2.03516 v -2.28907 h -6.36328 v 2.28907 h 2.03515 z m 6.39453,-1.50391 c 0,0.81641 0.71485,1.50391 1.52735,1.50391 h 3.46484 c 0.83984,0 1.52734,-0.6875 1.52734,-1.50391 v -14.78906 c 0,-0.81641 -0.66406,-1.52735 -1.52734,-1.52735 h -3.46484 c -0.8125,0 -1.52735,0.71094 -1.52735,1.52735 z m 4.22657,-0.78906 h -1.9336 v -13.23828 h 1.9336 z m 5.12109,-15.52735 v 17.82032 h 2.28906 v -8.09766 h 2.69922 c 0.83984,0 1.52734,-0.6875 1.52734,-1.5 v -6.69531 c 0,-0.81641 -0.66015,-1.52735 -1.52734,-1.52735 z m 4.22656,7.4336 h -1.9375 v -5.14453 h 1.9375 z m 0,0"
       style="fill:#575454;fill-opacity:1;fill-rule:nonzero;stroke:none" />
  </g>
</svg>
