<svg width="104" height="154" viewBox="0 0 104 154" fill="none" xmlns="http://www.w3.org/2000/svg">
<path fill-rule="evenodd" clip-rule="evenodd" d="M17.1875 17.8945L51.9375 0L86.6914 17.8945V102.336H17.1875V17.8945Z" fill="white"/>
<path d="M2.19141 130.391L4.99219 120.77V130.391H7.28516V112.57H4.99219L2.29297 121.941V112.57H0V130.391H2.19141ZM33.9883 94.0742L43.8594 60.1484V94.0742C55.1094 94.0742 66.3594 94.0742 77.6094 94.0742V23.7422L64.5742 16.9766L51.9375 23.7422L38.9062 16.9766L26.2695 23.7422V94.0742H33.9883ZM51.9375 78.8164V46.3359H59.1211V39.3242H69.5312V56.6484H58.2227V64.7266H69.5312V85.9961H59.1211V78.8164H51.9375ZM51.9375 31.2461L64.5742 24.4805L77.6094 31.2461C69.0508 31.2461 60.4961 31.2461 51.9375 31.2461ZM51.9375 31.2461H43.8594L34.3477 64.2773V31.2461H26.2695L38.9062 24.4805L51.9375 31.2461ZM16.6562 117.918V114.098C16.6562 113.285 15.9922 112.57 15.1289 112.57H11.6641C10.8516 112.57 10.1367 113.285 10.1367 114.098V128.891C10.1367 129.703 10.8516 130.391 11.6641 130.391H15.1289C15.9687 130.391 16.6562 129.703 16.6562 128.891V125.02H14.3633V128.102H12.4297V114.863H14.3633V117.918H16.6562ZM19.1289 112.57V130.391H21.418V122.602L23.5312 130.391H25.9023L23.2031 120.844L25.6211 112.57H23.2031L21.418 119.266V112.57H19.1289ZM30.0039 130.391L32.8047 120.77V130.391H35.0938V112.57H32.8047L30.1055 121.941V112.57H27.8125V130.391H30.0039ZM39.2227 130.391H41.5156V114.863H43.5508V112.57H37.1875V114.863H39.2227V130.391ZM47.7812 130.391L50.582 120.77V130.391H52.8711C52.8711 123.431 52.8711 119.53 52.8711 112.57H50.582L47.8828 121.941V112.57H45.5898V130.391H47.7812ZM65.8594 130.391V112.57H63.5664L60.7422 121.48L58.0195 112.57H55.7266V130.391H58.0938V120.77L59.8242 126.574H61.6836L63.5664 120.77V130.391H65.8594ZM75.207 117.918V114.098C75.207 113.285 74.543 112.57 73.6797 112.57H70.2148C69.4023 112.57 68.6875 113.285 68.6875 114.098V128.891C68.6875 129.703 69.4023 130.391 70.2148 130.391H73.6797C74.5195 130.391 75.207 129.703 75.207 128.891V125.02H72.9141V128.102H70.9805V114.863H72.9141V117.918H75.207ZM77.6797 112.57V130.391H79.9688V122.602L82.082 130.391H84.4531L81.7539 120.844L84.1719 112.57H81.7539L79.9688 119.266V112.57H77.6797ZM88.5547 130.391L91.3555 120.77V130.391H93.6445V112.57H91.3555L88.6562 121.941V112.57H86.3633V130.391H88.5547ZM98.6875 130.391L101.488 120.77V130.391H103.781V112.57H101.488L98.793 121.941V112.57H96.5V130.391H98.6875ZM101.211 110.051H99.0977V109.262H97.2891V110.688C97.2891 111.246 97.6953 111.73 98.2578 111.832C98.332 111.859 98.4102 111.859 98.4844 111.859H101.82C102.484 111.859 103.02 111.324 103.02 110.688V109.262H101.211V110.051ZM19.7773 137.734H21.7109V142.648H19.5234V144.941H21.7109V150.973H19.7773V149.422H17.4844V151.762C17.4844 152.578 18.1992 153.266 19.0117 153.266H22.4727C23.3164 153.266 24.0039 152.578 24.0039 151.762V136.973C24.0039 136.156 23.3398 135.445 22.4727 135.445H19.0117C18.1992 135.445 17.4844 136.156 17.4844 136.973V139.16H19.7773V137.734ZM27.0586 136.973V150.973H26.0391V153.266H27.8203C28.6602 153.266 29.3477 152.578 29.3477 151.762V137.734H31.2852V153.266H33.5742V135.445H28.5859C27.7695 135.445 27.0586 136.156 27.0586 136.973ZM42.2266 150.973H38.6133V144.941H41.0312V142.648H38.6133V137.734H42.0469V135.445H36.3203V153.266H42.2266V150.973ZM44.6602 153.266H49.6484C50.4883 153.266 51.1758 152.578 51.1758 151.762V145.449C51.1758 144.812 50.7969 144.102 50.1094 143.949C50.5664 143.82 50.8984 143.336 50.8984 142.699V136.973C50.8984 136.156 50.2344 135.445 49.3711 135.445H44.6602V153.266ZM46.9492 150.973V145.219H48.8867V150.973H46.9492ZM46.9492 137.734H48.6055V142.93H46.9492V137.734ZM58.8438 153.266H61.0859L59.25 135.445H55.1758L53.293 153.266H55.5859L55.9414 149.777H58.4883L58.8438 153.266ZM57.2148 137.734L58.2344 147.488H56.1953L57.2148 137.734ZM64.5742 153.266H66.8672V137.734H68.9023V135.445H62.5391V137.734H64.5742V153.266ZM70.9688 151.762C70.9688 152.578 71.6836 153.266 72.4961 153.266H75.9609C76.8008 153.266 77.4883 152.578 77.4883 151.762V136.973C77.4883 136.156 76.8242 135.445 75.9609 135.445H72.4961C71.6836 135.445 70.9688 136.156 70.9688 136.973V151.762ZM75.1953 150.973H73.2617V137.734H75.1953V150.973ZM80.3164 135.445V153.266H82.6055V145.168H85.3047C86.1445 145.168 86.832 144.48 86.832 143.668V136.973C86.832 136.156 86.1719 135.445 85.3047 135.445H80.3164ZM84.543 142.879H82.6055V137.734H84.543V142.879Z" fill="#575454"/>
</svg>
