<svg width="88" height="88" viewBox="0 0 88 88" fill="none" xmlns="http://www.w3.org/2000/svg">
<path d="M67.624 32.9222L55.726 45.1C55.6375 45.1889 55.6375 45.3222 55.726 45.4111L64.0524 54.3222C64.6163 54.8889 64.6163 55.8 64.0524 56.3667C63.776 56.6444 63.4 56.7889 63.0351 56.7889C62.6702 56.7889 62.2942 56.6444 62.0178 56.3667L53.7245 47.4889C53.6361 47.4 53.4923 47.4 53.4038 47.4889L51.3803 49.5556C49.6885 51.2778 47.4437 52.2333 45.0332 52.2444C42.5894 52.2556 40.2673 51.2222 38.5534 49.4778L36.6072 47.4889C36.5188 47.4 36.375 47.4 36.2865 47.4889L27.9933 56.3667C27.7168 56.6444 27.3409 56.7889 26.976 56.7889C26.6111 56.7889 26.2351 56.6444 25.9587 56.3667C25.3947 55.8 25.3947 54.8889 25.9587 54.3222L34.2851 45.4111C34.3625 45.3222 34.3625 45.1889 34.2851 45.1L22.376 32.9222C22.2322 32.7778 22 32.8778 22 33.0778V57.4444C22 59.4 23.5923 61 25.5385 61H64.4615C66.4077 61 68 59.4 68 57.4444V33.0778C68 32.8778 67.7567 32.7889 67.624 32.9222Z" fill="#FFD068"/>
<path d="M45 49.3444C46.6366 49.3444 48.1736 48.7 49.3236 47.5222L66.6731 29.7778C66.0649 29.2889 65.313 29 64.4837 29H25.5274C24.6981 29 23.9351 29.2889 23.338 29.7778L40.6875 47.5222C41.8265 48.6889 43.3635 49.3444 45 49.3444Z" fill="#FFD068"/>
<circle cx="44" cy="44" r="43" stroke="#FFD068" stroke-width="2"/>
</svg>
