<svg width="88" height="88" viewBox="0 0 88 88" fill="none" xmlns="http://www.w3.org/2000/svg">
<circle cx="44" cy="44" r="43" stroke="#E89F00" stroke-width="2"/>
<path fill-rule="evenodd" clip-rule="evenodd" d="M62.5653 54.776C60.4286 51.9877 57.8438 50.177 54.1403 49.1496L50.6702 61.2988C50.6702 62.4179 49.754 63.3341 48.635 63.3341C47.5163 63.3341 46.6 62.4179 46.6 61.2988V51.632C46.6 50.228 45.4601 49.0879 44.056 49.0879C42.6519 49.0879 41.5121 50.228 41.5121 51.632V61.2988C41.5121 62.4179 40.5958 63.3341 39.4771 63.3341C38.358 63.3341 37.4417 62.4179 37.4417 61.2988L33.9716 49.1496C30.268 50.187 27.6833 51.9877 25.5468 54.776C24.7021 55.875 24.2432 58.0831 24.2131 59.2639C24.2232 59.5691 24.2131 59.9254 24.2131 60.2811V62.3163V64.3517C24.2131 66.6004 26.0347 68.4218 28.2836 68.4218H59.8281C62.0769 68.4218 63.8988 66.6004 63.8988 64.3517V62.3163V60.2811C63.8988 59.9254 63.8888 59.5691 63.8988 59.2639C63.868 58.0831 63.4096 55.8749 62.5653 54.776ZM33.3714 30.3443C33.3714 36.2869 37.0761 45.0177 44.056 45.0177C50.9145 45.0177 54.7403 36.2869 54.7403 30.3443C54.7403 24.4019 49.9577 19.5784 44.056 19.5784C38.1542 19.5784 33.3714 24.4019 33.3714 30.3443Z" fill="#E89F00"/>
</svg>
