<svg width="91" height="91" viewBox="0 0 91 91" fill="none" xmlns="http://www.w3.org/2000/svg">
<path d="M55.9731 18H36.1393C33.8508 18 32 19.825 32 22.1125V69.7375C32 72.0375 33.8508 74 36.1393 74H55.9606C58.2492 74 59.9999 72.0375 59.9999 69.7375V22.1125C60.0124 19.825 58.2617 18 55.9731 18ZM44.1304 20.875H47.8821C48.1572 20.875 48.3823 21.1 48.3823 21.375C48.3823 21.65 48.1572 21.875 47.8821 21.875H44.1304C43.8553 21.875 43.6302 21.65 43.6302 21.375C43.6302 21.1 43.8553 20.875 44.1304 20.875ZM46.0687 72.125C44.8682 72.125 43.8928 71.15 43.8928 69.95C43.8928 68.75 44.8682 67.775 46.0687 67.775C47.2693 67.775 48.2447 68.75 48.2447 69.95C48.2447 71.15 47.2693 72.125 46.0687 72.125ZM57.7614 66H34.251C34.1134 66 34.0009 65.8875 34.0009 65.75V24.625C34.0009 24.4875 34.1134 24.375 34.251 24.375H57.7614C57.899 24.375 58.0116 24.4875 58.0116 24.625V65.75C58.0116 65.8875 57.899 66 57.7614 66Z" fill="#E89F00"/>
<circle cx="45.5" cy="45.5" r="44.5" stroke="#E89F00" stroke-width="2"/>
</svg>
